<?xml version="1.0" encoding="UTF-8"?>
<svg viewBox="0 0 1606.7838 1270.5767" xmlns="http://www.w3.org/2000/svg">
 <g transform="matrix(2.6773 0 0 2.6773 -88.191 -126.7)">
  <g transform="matrix(-.3699 -.77043 -.77043 .3699 655.84 353.91)" stroke="#000" stroke-width="4.6804">
   <path d="m303.88 499.12c-0.01852-0.1954-0.01143-0.39873-0.03125-0.59375-0.29524-2.9043-0.73653-5.7814-1.3125-8.5938s-1.2828-5.5755-2.125-8.2812-1.8124-5.3528-2.9062-7.9375-2.3252-5.082-3.6562-7.5312-2.7588-4.8259-4.3125-7.125-3.2382-4.5217-5-6.6562-3.607-4.2008-5.5625-6.1562-4.0217-3.8007-6.1562-5.5625-4.3571-3.4463-6.6562-5-4.6758-2.9815-7.125-4.3125-4.9465-2.5624-7.5312-3.6562-5.2317-2.0641-7.9375-2.9062-5.469-1.549-8.2812-2.125-5.6894-1.0173-8.5938-1.3125-5.862-0.4375-8.8438-0.4375-5.9082 0.14226-8.8125 0.4375-5.7814 0.73653-8.5938 1.3125-5.5755 1.2828-8.2812 2.125-5.3528 1.8124-7.9375 2.9062-5.1133 2.3252-7.5625 3.6562-4.8259 2.7588-7.125 4.3125-4.4904 3.2382-6.625 5-4.2008 3.607-6.1562 5.5625-3.8007 4.0217-5.5625 6.1562-3.4463 4.3571-5 6.6562-2.9815 4.6758-4.3125 7.125c-0.27108 0.49882-0.48851 1.0266-0.75 1.5312 4.1422 43.86 41.094 78.219 86.031 78.219 33.415 0 62.338-19.039 76.719-46.812z" fill="#808080"/>
   <path d="m227.16 373.06c-47.709 0-86.438 38.729-86.438 86.438 0 2.771 0.15082 5.5142 0.40625 8.2188 0.26149-0.50468 0.47892-1.0324 0.75-1.5312 1.331-2.4492 2.7588-4.8259 4.3125-7.125s3.2382-4.5217 5-6.6562 3.607-4.2008 5.5625-6.1562 4.0217-3.8007 6.1562-5.5625 4.3259-3.4463 6.625-5 4.6758-2.9815 7.125-4.3125 4.9778-2.5624 7.5625-3.6562 5.2317-2.0641 7.9375-2.9062 5.469-1.549 8.2812-2.125 5.6894-1.0173 8.5938-1.3125 5.8307-0.4375 8.8125-0.4375 5.9394 0.14226 8.8438 0.4375 5.7814 0.73653 8.5938 1.3125 5.5755 1.2828 8.2812 2.125 5.3528 1.8124 7.9375 2.9062 5.082 2.3252 7.5312 3.6562 4.8259 2.7588 7.125 4.3125 4.5217 3.2382 6.6562 5 4.2008 3.607 6.1562 5.5625 3.8007 4.0217 5.5625 6.1562 3.4463 4.3571 5 6.6562 2.9815 4.6758 4.3125 7.125 2.5624 4.9465 3.6562 7.5312 2.0641 5.2317 2.9062 7.9375 1.549 5.469 2.125 8.2812 1.0173 5.6894 1.3125 8.5938c0.01982 0.19502 0.01273 0.39835 0.03125 0.59375 6.1516-11.88 9.6875-25.331 9.6875-39.625 0-47.709-38.698-86.438-86.406-86.438z"/>
   <path transform="translate(-195.71 18.571)" d="m442.86 458.08a22.857 22.857 0 1 1 -45.714 0 22.857 22.857 0 1 1 45.714 0z" fill="#fff"/>
  </g>
  <g transform="translate(-80.753 107.94)" stroke="#000" stroke-width="4">
   <path d="m583.12 129.75c-0.01407 1.0648-369.2 76.115-374.24 57.017s-7.7392-39.308-7.7392-60.218c0-32.756 11.707-117.55 116.75-168.86 95.618-46.699 257.96 83.857 265.25 168.86 0 1.0685-0.00705 2.1353-0.02112 3.2001z" fill="#84ffff"/>
   <g transform="matrix(.9788 -.20481 .20481 .9788 112.13 -269.8)" fill="#00f">
    <path d="m65.75 379.5c-10.315 0-18.594 9.5661-18.594 21.438v80c0 11.636 7.9696 21.038 18 21.406 3.3905 5.2081 8.7914 8.5938 14.906 8.5938h39.875c10.315 0 18.625-9.5661 18.625-21.438v-80c0-11.632-7.9749-21.031-18-21.406-3.3902-5.2122-8.7886-8.5938-14.906-8.5938h-39.906z"/>
    <path d="m68.625 350.92c-10.315 0-18.625 3.1349-18.625 7v26.031c0 2.6994 4.0427 5.0577 10 6.2188v2.3438c0 3.8651 8.3098 7 18.625 7h39.906c10.315 0 18.625-3.1349 18.625-7v-26.031c0-2.6948-4.0593-5.0245-10-6.1875v-2.375c0-3.8651-8.3098-7-18.625-7h-39.906z"/>
   </g>
   <g transform="matrix(.9788 -.20481 .20481 .9788 239.27 -292.65)" fill="#00f">
    <path d="m65.75 379.5c-10.315 0-18.594 9.5661-18.594 21.438v80c0 11.636 7.9696 21.038 18 21.406 3.3905 5.2081 8.7914 8.5938 14.906 8.5938h39.875c10.315 0 18.625-9.5661 18.625-21.438v-80c0-11.632-7.9749-21.031-18-21.406-3.3902-5.2122-8.7886-8.5938-14.906-8.5938h-39.906z"/>
    <path d="m68.625 350.92c-10.315 0-18.625 3.1349-18.625 7v26.031c0 2.6994 4.0427 5.0577 10 6.2188v2.3438c0 3.8651 8.3098 7 18.625 7h39.906c10.315 0 18.625-3.1349 18.625-7v-26.031c0-2.6948-4.0593-5.0245-10-6.1875v-2.375c0-3.8651-8.3098-7-18.625-7h-39.906z"/>
   </g>
   <g transform="matrix(.9788 -.20481 .20481 .9788 180.85 -294.7)" fill="#00f">
    <path d="m65.75 379.5c-10.315 0-18.594 9.5661-18.594 21.438v80c0 11.636 7.9696 21.038 18 21.406 3.3905 5.2081 8.7914 8.5938 14.906 8.5938h39.875c10.315 0 18.625-9.5661 18.625-21.438v-80c0-11.632-7.9749-21.031-18-21.406-3.3902-5.2122-8.7886-8.5938-14.906-8.5938h-39.906z"/>
    <path d="m68.625 350.92c-10.315 0-18.625 3.1349-18.625 7v26.031c0 2.6994 4.0427 5.0577 10 6.2188v2.3438c0 3.8651 8.3098 7 18.625 7h39.906c10.315 0 18.625-3.1349 18.625-7v-26.031c0-2.6948-4.0593-5.0245-10-6.1875v-2.375c0-3.8651-8.3098-7-18.625-7h-39.906z"/>
   </g>
   <g transform="matrix(.9788 -.20481 .20481 .9788 290.7 -319.8)" fill="#00f">
    <path d="m65.75 379.5c-10.315 0-18.594 9.5661-18.594 21.438v80c0 11.636 7.9696 21.038 18 21.406 3.3905 5.2081 8.7914 8.5938 14.906 8.5938h39.875c10.315 0 18.625-9.5661 18.625-21.438v-80c0-11.632-7.9749-21.031-18-21.406-3.3902-5.2122-8.7886-8.5938-14.906-8.5938h-39.906z"/>
    <path d="m68.625 350.92c-10.315 0-18.625 3.1349-18.625 7v26.031c0 2.6994 4.0427 5.0577 10 6.2188v2.3438c0 3.8651 8.3098 7 18.625 7h39.906c10.315 0 18.625-3.1349 18.625-7v-26.031c0-2.6948-4.0593-5.0245-10-6.1875v-2.375c0-3.8651-8.3098-7-18.625-7h-39.906z"/>
   </g>
   <path d="m363.72-58.607c-15.468 0.17606-30.241 3.2143-43.688 9.7812-105.04 51.302-116.75 136.12-116.75 168.87-1e-5 20.91 2.7133 41.121 7.75 60.219 0.62399 2.3665 6.8714 3.2694 17.281 3.0625-13.007-18-17.03-47.557-8.5-77.875 12.29-43.684 45.957-72.465 75.156-64.25s-13.991 31.784-26.281 75.469c-6.489 23.064-3.0659 47.14-2.6875 63.531 16.299-1.9181 35.418-4.6318 55.906-7.8125-5.7771-10.879-9.0625-37.071-9.0625-66.906 3e-5 -39.275 2.5376-75.687 12.125-75.687 2.8546-1e-5 13.967-5.0054 16.344 0 5.6056 11.806 11.531 48.106 11.531 75.687 0 22.324-2.5069 47.902-6.4375 62.969 19.869-3.2604 40.535-6.8116 61.125-10.5-2.086-0.37371-3.3317-1.01-3.5938-2-40.698-46.221-54.583-94.034-30.562-144.06 21.915-10.666 65.066-13.904 91.406-2.0312 46.896 21.139 91.805 83.278 94.781 117.84 1e-4 0.3654 0.0027 0.72903 0 1.0938 15.66-3.2222 25.685-5.3936 25.688-5.5625 0.0141-1.0648 0.0312-2.119 0.0312-3.1875-6.2676-73.046-127.03-179.73-221.56-178.66z" fill="#ff0"/>
  </g>
  <g transform="matrix(-.3699 -.77043 -.77043 .3699 994.42 353.9)" stroke="#000" stroke-width="4.6804">
   <path d="m303.88 499.12c-0.01852-0.1954-0.01143-0.39873-0.03125-0.59375-0.29524-2.9043-0.73653-5.7814-1.3125-8.5938s-1.2828-5.5755-2.125-8.2812-1.8124-5.3528-2.9062-7.9375-2.3252-5.082-3.6562-7.5312-2.7588-4.8259-4.3125-7.125-3.2382-4.5217-5-6.6562-3.607-4.2008-5.5625-6.1562-4.0217-3.8007-6.1562-5.5625-4.3571-3.4463-6.6562-5-4.6758-2.9815-7.125-4.3125-4.9465-2.5624-7.5312-3.6562-5.2317-2.0641-7.9375-2.9062-5.469-1.549-8.2812-2.125-5.6894-1.0173-8.5938-1.3125-5.862-0.4375-8.8438-0.4375-5.9082 0.14226-8.8125 0.4375-5.7814 0.73653-8.5938 1.3125-5.5755 1.2828-8.2812 2.125-5.3528 1.8124-7.9375 2.9062-5.1133 2.3252-7.5625 3.6562-4.8259 2.7588-7.125 4.3125-4.4904 3.2382-6.625 5-4.2008 3.607-6.1562 5.5625-3.8007 4.0217-5.5625 6.1562-3.4463 4.3571-5 6.6562-2.9815 4.6758-4.3125 7.125c-0.27108 0.49882-0.48851 1.0266-0.75 1.5312 4.1422 43.86 41.094 78.219 86.031 78.219 33.415 0 62.338-19.039 76.719-46.812z" fill="#808080"/>
   <path d="m227.16 373.06c-47.709 0-86.438 38.729-86.438 86.438 0 2.771 0.15082 5.5142 0.40625 8.2188 0.26149-0.50468 0.47892-1.0324 0.75-1.5312 1.331-2.4492 2.7588-4.8259 4.3125-7.125s3.2382-4.5217 5-6.6562 3.607-4.2008 5.5625-6.1562 4.0217-3.8007 6.1562-5.5625 4.3259-3.4463 6.625-5 4.6758-2.9815 7.125-4.3125 4.9778-2.5624 7.5625-3.6562 5.2317-2.0641 7.9375-2.9062 5.469-1.549 8.2812-2.125 5.6894-1.0173 8.5938-1.3125 5.8307-0.4375 8.8125-0.4375 5.9394 0.14226 8.8438 0.4375 5.7814 0.73653 8.5938 1.3125 5.5755 1.2828 8.2812 2.125 5.3528 1.8124 7.9375 2.9062 5.082 2.3252 7.5312 3.6562 4.8259 2.7588 7.125 4.3125 4.5217 3.2382 6.6562 5 4.2008 3.607 6.1562 5.5625 3.8007 4.0217 5.5625 6.1562 3.4463 4.3571 5 6.6562 2.9815 4.6758 4.3125 7.125 2.5624 4.9465 3.6562 7.5312 2.0641 5.2317 2.9062 7.9375 1.549 5.469 2.125 8.2812 1.0173 5.6894 1.3125 8.5938c0.01982 0.19502 0.01273 0.39835 0.03125 0.59375 6.1516-11.88 9.6875-25.331 9.6875-39.625 0-47.709-38.698-86.438-86.406-86.438z"/>
   <path transform="translate(-195.71 18.571)" d="m442.86 458.08a22.857 22.857 0 1 1 -45.714 0 22.857 22.857 0 1 1 45.714 0z" fill="#fff"/>
  </g>
  <path d="m611.08 341.23c-15.275 1.6557-48.336 24.698-53.128 18.692-13.031-16.332 13.723-50.061-34.374-79.537-45.62-27.958-24.88 58.764-17.068 62.813 12.312 6.3812-32.515 17.06-41.137-15.938-21.052-80.577 75.991-133.98 123.76-87.34s52.546 73.52 21.945 101.31z" fill="#ff0" stroke="#000" stroke-width="4"/>
  <path d="m391.08 219.04c-6.1076 19.985 5.1462 41.144 25.131 47.252s41.174-5.1369 47.282-25.122-5.1668-41.183-25.152-47.291-41.153 5.176-47.261 25.161zm10.731 6.9067 18.798 5.745c-0.02302 4.1055 2.0579 7.9912 5.4968 10.241l-5.7358 18.768c-13.765-5.5424-21.601-20.241-18.559-34.754zm2.3166-6.9384c6.0466-12.733 20.177-19.773 34.117-16.793l-5.3156 17.393c-3.9868-0.05513-7.7626 1.8911-10.063 5.1266l-18.738-5.7266zm23.3 43.621 5.7267-18.738c3.8986-0.12867 7.5481-2.1345 9.7199-5.3947l17.423 5.3248c-5.3397 13.118-19.008 20.844-32.87 18.808zm12.44-40.704 5.3065-17.363c12.111 5.8068 19.087 18.925 17.081 32.211l-17.363-5.3065c-0.0934-3.7827-1.9607-7.3264-5.0245-9.5414z" fill="#782121" stroke="#000" stroke-width="4"/>
  <path d="m592.47 361.47c0 47.458-109.77 64.83-245.02 64.83s-243.7-27.944-243.7-75.402-5.7929-72.056 163.8-92.224c62.891-7.4786 363.08-97.299 324.92 102.8z" fill="#ff0" stroke="#000" stroke-width="4"/>
  <path d="m376.65 257.57c26.534-17.056 70.466 3.9466 98.063 46.88s28.459 91.62 1.9244 108.68" fill="#ff0" stroke="#000" stroke-width="4"/>
  <path d="m284.17 309.51c-4.5576-22.024 45.968-50.872 112.78-64.392s124.74-6.6202 129.29 15.403" fill="none" stroke="#000" stroke-width="4"/>
  <g transform="translate(-80.753 107.94)" stroke="#000">
   <path d="m277.93 290.95c-3.174 40.649-38.749 71.071-79.398 67.897-2.361-0.18435-4.6882-0.49535-6.9756-0.89292 0.4474-0.18922 0.91152-0.33937 1.3546-0.53715 2.1753-0.97114 4.2953-2.0295 6.3576-3.2004s4.0681-2.4582 6.004-3.8173 3.8192-2.7938 5.6154-4.3299 3.5058-3.1738 5.149-4.8752 3.2242-3.4565 4.7009-5.3121 2.8514-3.7856 4.1484-5.7838 2.5144-4.0707 3.6184-6.2002 2.1067-4.3203 3.0043-6.5696 1.6837-4.5567 2.3615-6.9145 1.2452-4.7799 1.69-7.2348 0.76067-4.9388 0.95905-7.4794 0.27393-5.0701 0.2156-7.5643-0.24292-4.975-0.54657-7.4095-0.72208-4.8358-1.2596-7.1973-1.1881-4.6813-1.9482-6.9564-1.6431-4.4848-2.6142-6.6601-2.0295-4.2953-3.2004-6.3576-2.4582-4.0681-3.8173-6.004-2.7938-3.8192-4.3299-5.6154-3.1738-3.5058-4.8752-5.149-3.4831-3.2262-5.3387-4.703-3.7856-2.8514-5.7838-4.1484-4.0441-2.5123-6.1736-3.6163-4.3203-2.1067-6.5697-3.0043-4.5567-1.6837-6.9145-2.3615-4.7799-1.2452-7.2348-1.69c-0.16484-0.02986-0.33856-0.03735-0.50381-0.06613 10.532-4.451 22.228-6.5688 34.406-5.6178 40.649 3.174 71.073 38.722 67.899 79.371z" stroke-width="4"/>
   <path d="m264.11 295.01c-15.285 1.5583-48.493 24.389-53.246 18.353-12.927-16.415 14.042-49.973-33.866-79.755-45.441-28.249-25.254 58.604-17.468 62.703 12.271 6.4595-32.624 16.853-41.034-16.2-20.538-80.71 76.843-133.49 124.32-86.55s52.077 73.854 21.299 101.45z" fill="#ff0" stroke-width="4"/>
   <path d="m175.63 217.2c0.16525 0.02878 0.33897 0.03627 0.50381 0.06613 2.4549 0.44477 4.877 1.0122 7.2348 1.69s4.6651 1.4639 6.9145 2.3615 4.4401 1.9003 6.5697 3.0043 4.1754 2.3193 6.1736 3.6163 3.9283 2.6716 5.7838 4.1484 3.6372 3.0598 5.3387 4.703 3.3392 3.3528 4.8752 5.149 2.9707 3.6795 4.3299 5.6154 2.6465 3.9417 3.8173 6.004 2.2292 4.1823 3.2004 6.3576 1.8542 4.385 2.6142 6.6601 1.4106 4.5949 1.9482 6.9564 0.95598 4.7628 1.2596 7.1973 0.48823 4.9153 0.54657 7.4095-0.01723 5.0237-0.2156 7.5643-0.51428 5.0245-0.95905 7.4794-1.0122 4.877-1.69 7.2348-1.4639 4.6651-2.3615 6.9145-1.9003 4.4401-3.0043 6.5696-2.3214 4.202-3.6184 6.2002-2.6716 3.9282-4.1484 5.7838-3.0578 3.6106-4.7009 5.3121-3.3528 3.3392-5.149 4.8752-3.6795 2.9707-5.6154 4.3299-3.9417 2.6465-6.004 3.8173-4.1823 2.2292-6.3576 3.2004c-0.44305 0.19778-0.90717 0.34793-1.3546 0.53715-37.094-6.4472-63.911-40.217-60.921-78.505 2.223-28.471 20.369-51.847 44.99-62.252z" fill="#808080" stroke-width="4"/>
   <path transform="matrix(.066529 -.85203 -.85203 -.066529 551.84 674.84)" d="m442.86 458.08a22.857 22.857 0 1 1 -45.714 0 22.857 22.857 0 1 1 45.714 0z" fill="#fff" stroke-width="4.6804"/>
   <path transform="translate(51.429 -157.14)" d="m148.57 443.79a11.429 11.429 0 1 1 -22.857 0 11.429 11.429 0 1 1 22.857 0z" fill="none" stroke-width="4"/>
  </g>
  <g transform="translate(-80.753 107.94)" stroke="#000">
   <path d="m463.61 343.84c-3.174 40.649-38.749 71.071-79.398 67.897-2.361-0.18435-4.6882-0.49535-6.9756-0.89292 0.4474-0.18922 0.91152-0.33937 1.3546-0.53715 2.1753-0.97114 4.2953-2.0295 6.3576-3.2004s4.0681-2.4582 6.004-3.8173 3.8192-2.7938 5.6154-4.3299 3.5058-3.1738 5.149-4.8752 3.2242-3.4565 4.7009-5.3121 2.8514-3.7856 4.1484-5.7838 2.5144-4.0707 3.6184-6.2002 2.1067-4.3203 3.0043-6.5696 1.6837-4.5567 2.3615-6.9145 1.2452-4.7799 1.69-7.2348 0.76067-4.9388 0.95905-7.4794 0.27393-5.0701 0.2156-7.5643-0.24292-4.975-0.54657-7.4095-0.72208-4.8358-1.2596-7.1973-1.1881-4.6813-1.9482-6.9564-1.6431-4.4848-2.6142-6.6601-2.0295-4.2953-3.2004-6.3576-2.4582-4.0681-3.8173-6.004-2.7938-3.8192-4.3299-5.6154-3.1738-3.5058-4.8752-5.149-3.4831-3.2262-5.3387-4.703-3.7856-2.8514-5.7838-4.1484-4.0441-2.5123-6.1736-3.6163-4.3203-2.1067-6.5697-3.0043-4.5567-1.6837-6.9145-2.3615-4.7799-1.2452-7.2348-1.69c-0.16484-0.02986-0.33856-0.03735-0.50381-0.06613 10.532-4.451 22.228-6.5688 34.406-5.6178 40.649 3.174 71.073 38.722 67.899 79.371z" stroke-width="4"/>
   <path d="m457.09 348.8c-15.275 1.6557-48.336 24.698-53.128 18.692-13.031-16.332 13.723-50.061-34.374-79.537-45.62-27.958-24.88 58.764-17.068 62.813 12.312 6.3812-32.515 17.06-41.137-15.938-21.052-80.577 75.991-133.98 123.76-87.34s52.546 73.52 21.945 101.31z" fill="#ff0" stroke-width="4"/>
   <path d="m361.3 270.08c0.16525 0.02878 0.33897 0.03627 0.50381 0.06613 2.4549 0.44477 4.877 1.0122 7.2348 1.69s4.6651 1.4639 6.9145 2.3615 4.4401 1.9003 6.5697 3.0043 4.1754 2.3193 6.1736 3.6163 3.9283 2.6716 5.7838 4.1484 3.6372 3.0598 5.3387 4.703 3.3392 3.3528 4.8752 5.149 2.9707 3.6795 4.3299 5.6154 2.6465 3.9417 3.8173 6.004 2.2292 4.1823 3.2004 6.3576 1.8542 4.385 2.6142 6.6601 1.4106 4.5949 1.9482 6.9564 0.95598 4.7628 1.2596 7.1973 0.48823 4.9153 0.54657 7.4095-0.01723 5.0237-0.2156 7.5643-0.51428 5.0245-0.95905 7.4794-1.0122 4.877-1.69 7.2348-1.4639 4.6651-2.3615 6.9145-1.9003 4.4401-3.0043 6.5696-2.3214 4.202-3.6184 6.2002-2.6716 3.9282-4.1484 5.7838-3.0578 3.6106-4.7009 5.3121-3.3528 3.3392-5.149 4.8752-3.6795 2.9707-5.6154 4.3299-3.9417 2.6465-6.004 3.8173-4.1823 2.2292-6.3576 3.2004c-0.44305 0.19778-0.90717 0.34793-1.3546 0.53715-37.094-6.4472-63.911-40.217-60.921-78.505 2.223-28.471 20.369-51.847 44.99-62.252z" fill="#808080" stroke-width="4"/>
   <path transform="matrix(.066529 -.85203 -.85203 -.066529 737.51 727.72)" d="m442.86 458.08a22.857 22.857 0 1 1 -45.714 0 22.857 22.857 0 1 1 45.714 0z" fill="#fff" stroke-width="4.6804"/>
   <path transform="translate(237.14 -104.29)" d="m148.57 443.79a11.429 11.429 0 1 1 -22.857 0 11.429 11.429 0 1 1 22.857 0z" fill="none" stroke-width="4"/>
  </g>
  <path transform="translate(390.68 -124.92)" d="m125.71 439.51a41.429 41.429 0 1 1 -82.857 0 41.429 41.429 0 1 1 82.857 0z" fill="#fff" stroke="#000" stroke-width="4"/>
  <path transform="translate(397.82 -126.35)" d="m105.71 439.51a21.429 21.429 0 1 1 -42.857 0 21.429 21.429 0 1 1 42.857 0z" fill="#fff" stroke="#000" stroke-width="4"/>
  <g transform="matrix(.34786 -.13596 .15363 .30784 252 391.53)">
   <path d="m649.29 32.362-17.812-46.656h6.5938l14.781 39.281 14.812-39.281h6.5625l-17.781 46.656h-7.1562"/>
   <path d="m623.55 31.42h6.375l9.8125 39.438 9.7812-39.438h7.0938l9.8125 39.438 9.7812-39.438h6.4062l-11.719 46.656h-7.9375l-9.8438-40.5-9.9375 40.5h-7.9375l-11.688-46.656"/>
  </g>
  <path d="m353.38 397.75-1.0309 0.39247c-4.8317 8.0514-6.3846 15.468-3.9922 21.725 9.5622 25.007 83.157 37.738 158.34 9.114s123.63-87.813 114.06-112.82c-3.6127 1.8701-19.627-3.2147-21.022-0.62235-24.236 21.505-45.272 53.212-93.09 69.565-47.931 16.392-99.794 20.623-153.27 12.646z" fill="#f2f2f2" stroke="#000" stroke-width="4"/>
  <path transform="translate(-68.69 -247.49)" d="m480 608.08a38.571 52.857 0 1 1 -77.143 0 38.571 52.857 0 1 1 77.143 0z" fill="#ff0" stroke="#000" stroke-width="4"/>
  <path transform="matrix(.80624 -.17495 .17588 .81051 -175.08 5.8618)" d="m588.57 557.16a28.571 46.23 0 1 1 -57.143 0 28.571 46.23 0 1 1 57.143 0z" fill="#fff" stroke="#000" stroke-width="4.8357"/>
  <path d="m355.48 364.45c-10.457-1.9977-4.7444-40.899 6.8909-37.949s15.997 11.294 15.671 22.625c-1.9977 10.457-12.106 17.322-22.562 15.324z" fill="#0ff" stroke="#000" stroke-width="4"/>
  <path transform="matrix(1.6667 0 0 1.6667 -571.79 -637.55)" d="m564.29 590.93a3.2143 3.2143 0 1 1 -6.4286 0 3.2143 3.2143 0 1 1 6.4286 0z" stroke="#000" stroke-width="2.4"/>
  <path transform="matrix(3.6898 0 0 3.6898 -1591.2 -1767.2)" d="m530.71 572.9a1.25 1.25 0 1 1 -2.5 0 1.25 1.25 0 1 1 2.5 0z" fill="#fff" stroke="#000" stroke-width="1.0841"/>
  <path transform="matrix(.93047 0 0 .93047 184.47 -276.87)" d="m480 608.08a38.571 52.857 0 1 1 -77.143 0 38.571 52.857 0 1 1 77.143 0z" fill="#ff0" stroke="#000" stroke-width="4.2989"/>
  <path transform="matrix(.75018 -.16278 .16365 .75415 85.476 -41.133)" d="m588.57 557.16a28.571 46.23 0 1 1 -57.143 0 28.571 46.23 0 1 1 57.143 0z" fill="#fff" stroke="#000" stroke-width="5.197"/>
  <path d="m579.14 292.52c-9.7295-1.8588-4.4145-38.056 6.4117-35.311s14.885 10.508 14.582 21.052c-1.8588 9.7295-11.264 16.117-20.993 14.259z" fill="#0ff" stroke="#000" stroke-width="4"/>
  <path transform="matrix(1.5508 0 0 1.5508 -283.65 -639.81)" d="m564.29 590.93a3.2143 3.2143 0 1 1 -6.4286 0 3.2143 3.2143 0 1 1 6.4286 0z" stroke="#000" stroke-width="2.5794"/>
  <path transform="matrix(3.4332 0 0 3.4332 -1232.1 -1690.9)" d="m530.71 572.9a1.25 1.25 0 1 1 -2.5 0 1.25 1.25 0 1 1 2.5 0z" fill="#fff" stroke="#000" stroke-width="1.1651"/>
 </g>
</svg>
